<?xml version="1.0" encoding="utf-8"?>
<!-- Generator: Adobe Illustrator 19.2.1, SVG Export Plug-In . SVG Version: 6.00 Build 0)  -->
<svg version="1.1" id="Ebene_1" xmlns="http://www.w3.org/2000/svg" xmlns:xlink="http://www.w3.org/1999/xlink" x="0px" y="0px"
	 viewBox="0 0 48 60" style="enable-background:new 0 0 48 60;" xml:space="preserve">
<style type="text/css">
	.st0{fill:#FFFFFF;stroke:#000000;stroke-miterlimit:10;}
</style>
<g>
	<path class="st0" d="M40.6,20.4c-0.2-0.2-4.4-4.4-9.5-3.9c-2.3,0.2-3,0.5-3.6,0.8c-0.6,0.2-1,0.4-3.5,0.4c-2.5,0-2.9-0.2-3.5-0.4
		c-0.6-0.3-1.4-0.6-3.6-0.8c-5.1-0.5-9.3,3.7-9.5,4c-2.9,3.4-4.1,7.4-3.5,11.9c1.2,8.8,8.7,16.4,11.3,18.3c1.4,1,2.9,1.4,4.6,1.4
		c1.8,0,3.4-0.6,4.2-1c0.9,0.4,2.4,1,4.2,1c1.6,0,3.2-0.5,4.6-1.4c2.6-1.8,10.2-9.5,11.3-18.3C44.7,27.8,43.5,23.8,40.6,20.4z"/>
	<g>
		<path class="st0" d="M24,19.5c-0.1,0-0.1,0-0.2,0c-0.7-0.1-1.3-0.8-1.2-1.5c1-7-3.8-11.5-3.8-11.6c-0.6-0.5-0.6-1.4-0.1-1.9
			c0.5-0.6,1.4-0.6,1.9-0.1c0.2,0.2,5.9,5.6,4.7,14C25.2,19,24.7,19.5,24,19.5z"/>
	</g>
	<path class="st0" d="M24.2,13.6c0,0-0.6-9.4,15-6.9C39.2,6.7,35.4,18.8,24.2,13.6z"/>
</g>
</svg>
