<?xml version="1.0" encoding="utf-8"?>
<!-- Generator: Adobe Illustrator 19.2.1, SVG Export Plug-In . SVG Version: 6.00 Build 0)  -->
<svg version="1.1"
	 id="Ebene_1" xmlns:cc="http://creativecommons.org/ns#" xmlns:dc="http://purl.org/dc/elements/1.1/" xmlns:inkscape="http://www.inkscape.org/namespaces/inkscape" xmlns:rdf="http://www.w3.org/1999/02/22-rdf-syntax-ns#" xmlns:sodipodi="http://sodipodi.sourceforge.net/DTD/sodipodi-0.dtd" xmlns:svg="http://www.w3.org/2000/svg"
	 xmlns="http://www.w3.org/2000/svg" xmlns:xlink="http://www.w3.org/1999/xlink" x="0px" y="0px" viewBox="0 0 80 80"
	 style="enable-background:new 0 0 80 80;" xml:space="preserve">
<style type="text/css">
	.st0{fill:#FFFFFF;stroke:#000000;stroke-miterlimit:10;}
</style>
<path class="st0" d="M47.7,1.2c-5,0-9.5,2.5-12.4,6.3c-1.4-0.4-2.9-0.7-4.4-0.7c-8.7,0-15.7,7.3-15.7,16.3c0,8.9,6.9,16.1,15.5,16.3
	c0.9,2,2.3,3.7,3.9,5.1c0.3,6.9,0.5,15.9-0.3,23.5c-0.3,2.9-3.4,9-3.4,9c-0.2,0.3,3.1,0.2,3.3,0.2h8c0.2,0,3.2-0.1,3.2-0.3
	c0,0-3.3-5.3-3.9-8.3c-0.7-3.4-0.9-7.7-0.8-12.3c1.4-1,3.5-3.3,6.7-8.3c7.5-1.2,13.3-7.9,13.3-16.1c0-1.5-0.2-3-0.6-4.3
	c2.2-2.8,3.6-6.4,3.6-10.3C63.5,8.5,56.4,1.2,47.7,1.2z M40.8,48c1.2,0.3,2.5,0.5,3.9,0.5c0.3,0,0.6,0,1-0.1c-1,1.5-3.1,4.3-5.2,5.9
	C40.5,52.1,40.7,50,40.8,48z"/>
</svg>
