<?xml version="1.0" encoding="utf-8"?>
<!-- Generator: Adobe Illustrator 19.2.1, SVG Export Plug-In . SVG Version: 6.00 Build 0)  -->
<svg version="1.1" id="Ebene_1" xmlns="http://www.w3.org/2000/svg" xmlns:xlink="http://www.w3.org/1999/xlink" x="0px" y="0px"
	 viewBox="0 0 24 30" style="enable-background:new 0 0 24 30;" xml:space="preserve">
<style type="text/css">
	.st0{fill:#FFFFFF;stroke:#000000;stroke-miterlimit:10;}
</style>
<path class="st0" d="M15.5,20L14,17h1c0,0,2.2-0.4,3.4-2.4c0.6-1,1.7-1.6,2.9-1.6H22v-1h-8l-0.9-6.5C13.3,4.6,14.1,4,15,4
	c1.1,0,2,0.9,2,2v4h2V6c0-2.2-1.8-4-4-4c-1.2,0-2.3,0.5-3,1.4C11.3,2.5,10.2,2,9,2C6.8,2,5,3.8,5,6v4h2V6c0-1.1,0.9-2,2-2
	c0.9,0,1.7,0.6,1.9,1.5L10,12H2v1h0.7c1.2,0,2.3,0.6,2.9,1.6C6.8,16.6,9,17,9,17h1l-1.5,3H2v2h20v-2H15.5z"/>
</svg>
