<?xml version="1.0" encoding="utf-8"?>
<!-- Generator: Adobe Illustrator 19.2.1, SVG Export Plug-In . SVG Version: 6.00 Build 0)  -->
<svg version="1.1" id="Ebene_1" xmlns="http://www.w3.org/2000/svg" xmlns:xlink="http://www.w3.org/1999/xlink" x="0px" y="0px"
	 viewBox="0 0 45.8 100" style="enable-background:new 0 0 45.8 100;" xml:space="preserve">
<style type="text/css">
	.st0{fill:#FFFFFF;stroke:#000000;stroke-miterlimit:10;}
</style>
<path class="st0" d="M29,21.9c5,0,7,4.1,7.8,6.4l6.2,20.2c1.2,4.4-4.3,6.2-5.6,1.9l-5.5-18.6h-1.6l9.6,33.1h-8.9v25.8
	c0,4.4-6.6,4.4-6.6,0V64.8h-2.7l0,25.9c0,4.4-6.6,4.4-6.6,0l0-25.7H6.1l9.5-33.1h-1.5L8.6,50.5c-1.3,4.1-6.9,2.4-5.6-2l6.2-20.3
	c0.7-2.3,2.7-6.4,7.7-6.4H29z"/>
<circle class="st0" cx="22.9" cy="13.2" r="7.2"/>
</svg>
