<?xml version="1.0" encoding="utf-8"?>
<!-- Generator: Adobe Illustrator 19.2.1, SVG Export Plug-In . SVG Version: 6.00 Build 0)  -->
<svg version="1.1" id="Ebene_1" xmlns="http://www.w3.org/2000/svg" xmlns:xlink="http://www.w3.org/1999/xlink" x="0px" y="0px"
	 viewBox="0 0 100 125" style="enable-background:new 0 0 100 125;" xml:space="preserve">
<style type="text/css">
	.st0{fill:#FFFFFF;stroke:#000000;stroke-miterlimit:10;}
</style>
<path class="st0" d="M9.9,58c-1.1-4-2.2-8-2.3-13.5c-5,22.6-1.3,25.2-1.3,25.2h4.1C8.9,66.6,9.3,62.6,9.9,58z"/>
<path class="st0" d="M91.6,44c-0.1,5.4-0.8,9.8-1.8,13.9c0.8,4.6,1.4,8.7-0.1,11.8h3.7C93.3,69.7,98.1,64.6,91.6,44z"/>
<path class="st0" d="M81.9,69.7h6.6c3.7-6.4-3.6-18.7-0.6-30.9c-2,4.9-3.3,10.3-4.2,13.4"/>
<path class="st0" d="M77.2,30.3c1.5,6.2,0.7,14.6,0,22.2c1.1,8.3,1.2,16.6,1.2,17.2v0h5.3C83.7,69.7,86.5,50,77.2,30.3z"/>
<path class="st0" d="M71.7,69.7h-5.3c-3.7-6.4,1.5-23.2-1.5-35.4C74.2,54,71.7,69.7,71.7,69.7z"/>
<path class="st0" d="M77.4,69.7h-6.1c-4.8-6.8,4.1-18.5,1.1-30.7C77.2,46.9,77.4,69.7,77.4,69.7z"/>
<path class="st0" d="M60.5,69.7h6.7c0,0-1.4-16.5-5.6-22.6c-0.9,1.3-1.6,2.8-2.2,4.3C60.5,58.4,61,65.8,60.5,69.7z"/>
<path class="st0" d="M54.9,36.2c-2.6,5.6-5.6,25.9-4.7,33.5l1.4,0l0,0l3.3,0l3.3,0l0,0l1.4,0C60.5,62,57.5,41.8,54.9,36.2z"/>
<path class="st0" d="M34.2,69.7h-5.3c-3.7-6.4,0.4-23.2-2.6-35.4C35.6,54,34.2,69.7,34.2,69.7z"/>
<path class="st0" d="M52.2,69.7h-6.9c-3.7-6.4,1.4-25.9-1.6-38.2C53,51.3,52.2,69.7,52.2,69.7z"/>
<path class="st0" d="M39.1,69.7H48l-3.5-15.2c-0.5-2.2-1.3-4.7-2.5-7.3c-1.4,2-2.3,4.4-3,6.8c0.1,1.1,0.3,2.3,0.5,3.3
	C40.3,62.1,40.9,66.3,39.1,69.7z"/>
<path class="st0" d="M17.3,69.7h-5.7c-3.7-6.4,2.6-17.9-0.4-30.2c1.9,4.7,3.3,9.3,4.2,12.2"/>
<path class="st0" d="M30.7,69.7H22c0,0-3-14.3,2.8-22.5c1.2,2.6,2,5.1,2.5,7.3"/>
<path class="st0" d="M21.2,52.9c-0.8-6.6-1.7-13.7-0.2-19.6c-9.3,19.7-4.6,36.4-4.6,36.4H21C20.8,68.8,19.3,60.5,21.2,52.9z"/>
<path class="st0" d="M32.3,69.7h5.7c3.7-6.4-2.6-16.6,0.4-28.8c-2.8,6.8-4.4,10.6-5.3,14.9"/>
</svg>
