<?xml version="1.0" encoding="utf-8"?>
<!-- Generator: Adobe Illustrator 19.2.1, SVG Export Plug-In . SVG Version: 6.00 Build 0)  -->
<svg version="1.1" id="Ebene_1" xmlns="http://www.w3.org/2000/svg" xmlns:xlink="http://www.w3.org/1999/xlink" x="0px" y="0px"
	 viewBox="0 0 64 80" style="enable-background:new 0 0 64 80;" xml:space="preserve">
<style type="text/css">
	.st0{fill:#FFFFFF;stroke:#000000;stroke-miterlimit:10;}
</style>
<g>
	<g>
		<path class="st0" d="M52,34h-2c0-1.1-0.9-2-2-2H16c-1.1,0-2,0.9-2,2h-2c-1.1,0-2,0.9-2,2s0.9,2,2,2h2.5
			c1.3,5.6,5.2,10.2,10.3,12.5l-4.7,14.9c-0.3,1.1,0.3,2.2,1.3,2.5C21.6,68,21.8,68,22,68c0.9,0,1.6-0.5,1.9-1.4l2.7-8.6h10.9
			c-1,1.1-1.5,2.5-1.5,4c0,3.3,2.7,6,6,6s6-2.7,6-6c0-3.3-2.6-5.9-5.9-6l-2-6c4.7-2.4,8.2-6.8,9.4-12H52c1.1,0,2-0.9,2-2
			S53.1,34,52,34z M37.2,54h-9.4l0.7-2.3c1.1,0.2,2.3,0.3,3.4,0.3c1.5,0,3-0.2,4.4-0.6L37.2,54z"/>
		<path class="st0" d="M22.7,28c1.1,0,2-0.9,2-2c0-1.4,0.4-2,1-2.9c0.7-1.1,1.6-2.5,1.6-5.1c0-1.1-0.9-2-2-2s-2,0.9-2,2
			c0,1.4-0.4,2-1,2.9c-0.7,1.1-1.6,2.5-1.6,5.1C20.7,27.1,21.6,28,22.7,28z"/>
		<path class="st0" d="M30.7,28c1.1,0,2-0.9,2-2c0-1.4,0.4-2,1-2.9c0.7-1.1,1.6-2.5,1.6-5.1c0-1.1-0.9-2-2-2s-2,0.9-2,2
			c0,1.4-0.4,2-1,2.9c-0.7,1.1-1.6,2.5-1.6,5.1C28.7,27.1,29.6,28,30.7,28z"/>
		<path class="st0" d="M38.7,28c1.1,0,2-0.9,2-2c0-1.4,0.4-2,1-2.9c0.7-1.1,1.6-2.5,1.6-5.1c0-1.1-0.9-2-2-2s-2,0.9-2,2
			c0,1.4-0.4,2-1,2.9c-0.7,1.1-1.6,2.5-1.6,5.1C36.7,27.1,37.6,28,38.7,28z"/>
	</g>
</g>
</svg>
