<?xml version="1.0" encoding="utf-8"?>
<!-- Generator: Adobe Illustrator 19.2.1, SVG Export Plug-In . SVG Version: 6.00 Build 0)  -->
<svg version="1.1" id="Ebene_1" xmlns="http://www.w3.org/2000/svg" xmlns:xlink="http://www.w3.org/1999/xlink" x="0px" y="0px"
	 viewBox="0 0 100 125" style="enable-background:new 0 0 100 125;" xml:space="preserve">
<style type="text/css">
	.st0{fill:#FFFFFF;stroke:#000000;stroke-miterlimit:10;}
</style>
<g>
	<path class="st0" d="M64.9,87c-0.4-2.4-3.2-3.2-7.4-3.7c-4.5-0.5-6-2.2-6-3.7c0-0.3,0-2.3,0-4.9c3.8-2.1,9-6.8,4.9-26.5
		c-1.5-7.4,2.5-13,2.5-25.7c0-1.5,0.6-12.5-9.9-12.5c0,0,0,0,0,0h0c0,0,0,0,0,0C39.1,10,39,21,39,22.5c0,12.7,4.1,18.3,2.5,25.7
		c-4,19.2,1.2,24.2,5,26.4c0,2.7-0.1,4.8-0.1,5c0,1.5-1.5,3.2-6.1,3.6c-4.5,0.4-7.5,1.2-7.5,4.2c0,0.1,0,0.2,0,0.3l0.7,20.2
		c0.1,1.2,0.3,2.2,1.5,2.2s1.3-1,1.5-2.2L38.1,94c0,0,0.1-2,1.9-2c1.8,0,1.9,2,1.9,2l0.9,13.8c0.1,1.2,0.3,2.2,1.5,2.2
		c1.2,0,1.3-0.9,1.5-2.2L47,94c0,0-0.1-2,1.9-2c1.9,0,1.9,2,1.9,2.3l1.3,13.5c0.1,1.2,0.3,2.2,1.5,2.2c1.2,0,1.3-0.9,1.5-2.2
		L56.3,94c0,0,0-2,1.9-2c1.8,0,1.9,2.2,1.9,2.3l1.3,13.5c0,1.2,0.3,2.2,1.5,2.2c1.2,0,1.5-1,1.5-2.2L65,87.6
		C65,87.4,64.9,87.2,64.9,87z M49,20.9c-1.5,0-2.8-1.3-2.8-2.8c0-1.5,1.3-2.8,2.8-2.8s2.8,1.3,2.8,2.8C51.8,19.6,50.5,20.9,49,20.9z
		"/>
</g>
</svg>
