<?xml version="1.0" encoding="utf-8"?>
<!-- Generator: Adobe Illustrator 19.2.1, SVG Export Plug-In . SVG Version: 6.00 Build 0)  -->
<svg version="1.1" id="Ebene_1" xmlns="http://www.w3.org/2000/svg" xmlns:xlink="http://www.w3.org/1999/xlink" x="0px" y="0px"
	 viewBox="0 0 100 125" style="enable-background:new 0 0 100 125;" xml:space="preserve">
<style type="text/css">
	.st0{fill:#FFFFFF;stroke:#000000;stroke-miterlimit:10;}
</style>
<g>
	<path class="st0" d="M79.5,71.3c-2.2,0-4.1,0.9-5.4,2.3c-0.1-0.3-0.3-0.9-0.7-1.7c-3.6-8.4-13.3-9.8-21.9-10.5
		c-1.2-0.1-2.9-0.3-2.7-1.6c1.5-3.9,0.9-7.4-1.1-10.3c2.4-2.5,4.8-5.5,6.6-9.1C59.6,30,60.9,20,57.2,18.3c-2.7-1.3-7.3,2.1-11.6,8.1
		c-0.8-7.5-3-12.9-6.1-13c-4-0.2-7.8,9-8.5,20.7c-0.2,3.4,0.2,6.6,1,9.5c-4.6,0.8-9.2,3.3-13.1,8.4c-5,6.4-4.1,13.9,3.4,17.3
		c2.6,1.2,4.1-0.4,2,4.6c-1.8,4.2-1.1,8.4,2,11.6c3.3,3.4,3.7,4.4,0.1,6.2C23.7,93,22.5,96,24,99.1c1.4,3,4.3,3.3,7.2,3.4
		c7,0.2,12.7-2.7,18.7-7.8c0.3,3.8,1.4,6.3,4.8,7.3c6.7,1.9,17.6-1.8,21.3-7.8c1.1-1.8,1.6-6.1,1.4-7.6c0.4,0.1,1.8,0.2,2.3,0.2
		c0.3,0,0.5,0,0.9,0s0.9-0.1,1.3-0.2c3.3-0.9,5.6-3.9,5.6-7.3C87.2,74.7,83.8,71.3,79.5,71.3z M24.6,56.1c-1.3,0-2.4-1.1-2.4-2.4
		s1.1-2.4,2.4-2.4s2.4,1.1,2.4,2.4S25.9,56.1,24.6,56.1z"/>
</g>
</svg>
