<?xml version="1.0" encoding="utf-8"?>
<!-- Generator: Adobe Illustrator 19.2.1, SVG Export Plug-In . SVG Version: 6.00 Build 0)  -->
<svg version="1.1" id="Ebene_1" xmlns="http://www.w3.org/2000/svg" xmlns:xlink="http://www.w3.org/1999/xlink" x="0px" y="0px"
	 viewBox="0 0 100 125" style="enable-background:new 0 0 100 125;" xml:space="preserve">
<style type="text/css">
	.st0{fill:#FFFFFF;stroke:#000000;stroke-miterlimit:10;}
</style>
<path class="st0" d="M90.2,64.9c-3.4-5-8.4-5.3-12.5-5.5c-0.1-0.1-0.1-0.1-0.2-0.2c3.1-4,7.1-2.4,7.1-2.4c-4.8-4.3-10.2-3-14.3-2.1
	c2.1-5,6.6-4.3,6.6-4.3c-6.8-3.9-12.7,0.6-16.7,2c-0.1,0-0.2,0-0.2,0c0.8-5.3,5.3-5.8,5.3-5.8C58,44.7,53.5,50,50,52.5
	c-0.2,0-0.4,0.1-0.5,0.1c-1.3-6.1,3.4-7.9,3.4-7.9c-9.4,0.1-11.6,9.8-15.2,11.5v0.1c-0.2,0.1-0.4,0.2-0.6,0.3l0,0
	c-10.3,6.3-17.3,4.1-20.8,2.1c0-0.1,0-0.2,0-0.3c0-1.7-1.4-3.2-3.2-3.2S10,56.7,10,58.4s1.4,3.1,3.1,3.2C18.2,72,29.1,80.7,33.6,84
	v7.9c0,1.6,1.3,2.9,2.9,2.9s2.9-1.3,2.9-2.9v-4.5c1,0.5,2,0.9,3.1,1.2v3.8c0,1.6,1.3,2.9,2.9,2.9s2.9-1.3,2.9-2.9V90
	c2.3,0.4,4.7,0.6,7.2,0.6c2.2,0,4.3-0.2,6.4-0.5v2.2c0,1.6,1.3,2.9,2.9,2.9s2.9-1.3,2.9-2.9v-3.6c1-0.3,1.9-0.7,2.9-1v4.6
	c0,1.6,1.3,2.9,2.9,2.9s2.9-1.3,2.9-2.9v-7.7c4.9-3.5,7.9-8.2,7.9-13.3c0-2-0.5-3.9-1.3-5.8C86.6,62.4,90.2,64.9,90.2,64.9z
	 M37.5,66c-1.4,0-2.6-1.2-2.6-2.6s1.2-2.6,2.6-2.6c1.4,0,2.6,1.2,2.6,2.6C40.1,64.9,39,66,37.5,66z M44.3,60.8
	c1.4,0,2.6,1.2,2.6,2.6S45.8,66,44.3,66c-1.4,0-2.6-1.2-2.6-2.6S42.9,60.8,44.3,60.8z"/>
</svg>
