<?xml version="1.0" encoding="utf-8"?>
<!-- Generator: Adobe Illustrator 19.2.1, SVG Export Plug-In . SVG Version: 6.00 Build 0)  -->
<svg version="1.1" id="Ebene_1" xmlns="http://www.w3.org/2000/svg" xmlns:xlink="http://www.w3.org/1999/xlink" x="0px" y="0px"
	 viewBox="0 0 100 95.4" style="enable-background:new 0 0 100 95.4;" xml:space="preserve">
<style type="text/css">
	.st0{fill:#FFFFFF;stroke:#000000;stroke-miterlimit:10;}
</style>
<g>
	<path class="st0" d="M89.5,30.1c-2.3-4.1-5.9-7.4-10.7-9.3c-4.4-1.8-9.4-2.4-14.3-1.7S55.3,22,51.8,25c-3.1,2.9-5.5,6.6-6.8,10.8
		h-2.1c-0.7,0-1.3,0.3-1.3,1v2.6c0,0.7,0.5,1.4,1.3,1.4h36.7c0.7,0,0.8-0.7,0.8-1.4v-2.6c0-0.7-0.1-1-0.8-1H50.3
		c1.1-2.5,2.8-5,4.9-6.9c2.8-2.4,6.3-4.1,10.3-4.7c8.3-1.3,16.2,2.2,19.7,8.4c2.2,4,4.5,12.3-4.8,25.5V46.8c0-1.4-0.7-2.5-2.1-2.5
		H44.1c-1.4,0-2.5,0.8-2.5,2.5h-7.7C28.1,39.2,22,31.4,22,31.4c-0.3-0.3-0.3-0.7-0.4-1.1c0-0.1,0-0.7,0-0.8c0-0.1,0.2-0.5,0.3-0.7
		l2.3-4c0.4-0.8,0.4-1.9-0.1-2.7c-0.4-0.7-1.4-0.9-2.1-0.4L8.7,30.5c-0.8,0.5-0.9,1.4-0.4,2.2c0.5,0.7,1.5,1.2,2.4,1.1l4.2-0.5H15
		c0.8-0.1,1.9,0.3,2.4,1.1l24.3,37.9v8.2c0,1.4,1.1,2.6,2.5,2.6h34c1.4,0,2.1-1.2,2.1-2.6V66.6C95.5,48,92.7,35.8,89.5,30.1z
		 M36.5,51h5.1v5.6C39.9,55,38.5,53.5,36.5,51z"/>
</g>
</svg>
