<?xml version="1.0" encoding="utf-8"?>
<!-- Generator: Adobe Illustrator 19.2.1, SVG Export Plug-In . SVG Version: 6.00 Build 0)  -->
<svg version="1.1" id="Ebene_1" xmlns="http://www.w3.org/2000/svg" xmlns:xlink="http://www.w3.org/1999/xlink" x="0px" y="0px"
	 viewBox="0 0 512 640" style="enable-background:new 0 0 512 640;" xml:space="preserve">
<style type="text/css">
	.st0{fill:#FFFFFF;stroke:#000000;stroke-miterlimit:10;}
</style>
<path class="st0" d="M359.9,156.8c-4.3-4.3-11.4-4.3-15.7,0l-26,26l8.3-19.7c2.4-5.7-0.3-12.2-6-14.5c-5.7-2.4-12.2,0.3-14.5,6
	l-23.8,56.7c-8.9-1.4-19.5,0.7-30.4,5.6c6.1,9.9,7.4,28.3,7.4,28.3c0.4,3-1.7,5.8-4.8,6.2c-2.8,0.3-5.3-1.4-6-4
	c0,0-3.5-15.2-9.5-23.3c-6.3,4.1-12.5,9-18.3,14.8c-1.4,1.4-3,3.1-4.6,4.8c7.7,11.3,9.9,28,10.5,34.2c0.4,3-1.7,5.8-4.8,6.2
	c-2.8,0.3-5.3-1.4-6-4c0,0-2.9-14.4-10.2-24.2c-6.2,7.7-13,16.6-19.5,25.9c6.1,10.8,7.7,29,7.7,29c0.4,3-1.7,5.8-4.8,6.2
	c-2.8,0.3-5.3-1.4-6-4c0,0-3-12.4-6.2-17.5C157.5,325,143,355,151.8,363.8c15.5,15.5,98-41.9,124.7-68.7
	c19.3-19.3,29.4-42.6,27.8-59.8l47.1-16.6c5.8-2.1,8.8-8.4,6.8-14.2c-2.1-5.8-8.4-8.8-14.2-6.8l-13.9,4.9l29.9-30
	C364.2,168.2,364.2,161.2,359.9,156.8z"/>
</svg>
