<?xml version="1.0" encoding="utf-8"?>
<!-- Generator: Adobe Illustrator 19.2.1, SVG Export Plug-In . SVG Version: 6.00 Build 0)  -->
<svg version="1.1" id="Ebene_1" xmlns="http://www.w3.org/2000/svg" xmlns:xlink="http://www.w3.org/1999/xlink" x="0px" y="0px"
	 viewBox="0 0 50 62.5" style="enable-background:new 0 0 50 62.5;" xml:space="preserve">
<style type="text/css">
	.st0{fill:#FFFFFF;stroke:#000000;stroke-miterlimit:10;}
</style>
<path class="st0" d="M43.1,18.4c-1.4-1.5-2.8-2.8-4.6-4c0.3-0.6,0.6-1.2,0.7-1.9c0.1-1-0.1-2-0.6-3c-0.4-0.9-1-1.5-1.7-2
	C36.9,7.4,37,7.2,37,7c0-1.1-0.9-1.9-1.9-1.9s-2,0.8-2,1.9S34,8.9,35,8.9c0.6,0,1.1-0.3,1.5-0.7c0.8,1.1,1.1,2.3,1.1,3.4
	c0,0.6-0.1,1.2-0.4,1.9c-3.8-2.1-7.7-3.2-11.9-3.2s-8.1,1-11.8,3.1c-0.2-0.6-0.4-1.3-0.4-1.9c0-1.3,0.4-2.4,1.1-3.4
	c0.3,0.5,0.9,0.8,1.5,0.8c1.1,0,1.9-0.9,1.9-1.9s-0.9-1.9-1.9-1.9S13.9,5.9,13.9,7c0,0.2,0,0.4,0.1,0.5l-0.6,0.7
	C12.5,9,12,9.7,11.9,10.1c-0.2,0.7-0.4,1.3-0.4,2c0,0.8,0.2,1.5,0.6,2.2c-1.7,1.1-3.3,2.5-4.7,4.1c4.5,5,9.6,8.4,16.6,8.7v1.8
	c-2,0.5-3.6,1.6-4.9,4c-1.2,2.2-1.5,4.6-1.5,6.6c0,2.1,0.7,3.8,2.2,5c-0.8,1.3-0.8,2.1-0.8,4v0.7c0,0.1-0.2,0.1-0.6,0.1
	c-1.3,0-2.7,0.3-4.1,0.9C12.4,51,11.5,52,11.5,53h10.7c0,0-0.1-1.1-0.3-1.4c-0.3-0.5-0.6-1-0.9-1.5s-0.5-1.1-0.5-1.6
	c0-1.7-0.2-2.2,0.6-3.2c1.3,0.7,2.7,1,4.3,1c1.5,0,2.8-0.3,4.1-0.9c0.8,1,0.6,1.5,0.6,3.2c0,0.5-0.1,0.9-0.2,1.2
	c-0.3,0.5-0.5,1-0.8,1.6c-0.3,0.5-0.4,1.7-0.4,1.7h10.7c0-1-0.9-1.6-2.7-2.4c-1.6-0.7-3-0.7-4.3-0.7H31v-1.5c0-2,0.2-2.7-0.6-3.9
	c1.6-1.3,2.5-3,2.5-5.1c0-1.9-0.8-4.6-2-6.8c-1.3-2.3-2.9-3.2-4.9-3.8v-1.8C33,26.9,38.4,23.4,43.1,18.4z M25.9,13.5
	c2,0,3.1,1,3.1,3.1c0,2-1,3.1-3.1,3.1s-3.1-1-3.1-3.1S23.8,13.5,25.9,13.5z M25.4,24.3c-2,0-3.9-0.2-5.5-0.5
	c-2.5-0.5-3.8-1.3-3.8-2.3v-0.3c0,0.6,1.4,0.9,3.1,1.3s4-0.2,6.5-0.2c1.6,0,3.5,0.6,5.2,0.4c2.5-0.4,3.2-0.8,3.8-1.4l0.1,0.1
	c0,0.6-0.2,1.3-1,1.7C31.9,24,29,24.3,25.4,24.3z M25.8,17.4c0.6,0,0.9-0.3,0.9-0.9s-0.3-0.9-0.9-0.9s-0.9,0.3-0.9,0.9
	C25,17.1,25.3,17.4,25.8,17.4z"/>
</svg>
