<?xml version="1.0" encoding="utf-8"?>
<!-- Generator: Adobe Illustrator 19.2.1, SVG Export Plug-In . SVG Version: 6.00 Build 0)  -->
<svg version="1.1" id="Ebene_1" xmlns="http://www.w3.org/2000/svg" xmlns:xlink="http://www.w3.org/1999/xlink" x="0px" y="0px"
	 viewBox="0 0 100 125" style="enable-background:new 0 0 100 125;" xml:space="preserve">
<style type="text/css">
	.st0{fill:#FFFFFF;stroke:#000000;stroke-width:1.5;stroke-miterlimit:10;}
</style>
<path class="st0" d="M89.6,68.3c-0.2-0.5-0.3-0.9-0.5-1.3c-0.1-0.1-0.1-0.3-0.2-0.4c-0.1-0.3-0.2-0.5-0.4-0.8
	c-0.1-0.1-0.1-0.3-0.2-0.4c-0.1-0.2-0.2-0.4-0.4-0.6c-0.1-0.1-0.2-0.3-0.2-0.4c-0.1-0.2-0.3-0.4-0.4-0.5s-0.2-0.2-0.3-0.3
	c-0.1-0.2-0.3-0.3-0.4-0.5c-0.1-0.1-0.2-0.2-0.3-0.3c-0.1-0.2-0.3-0.3-0.5-0.4c-0.1-0.1-0.2-0.2-0.2-0.2c-0.2-0.2-0.4-0.3-0.5-0.4
	c-0.1,0-0.1-0.1-0.2-0.1c-0.2-0.2-0.5-0.3-0.8-0.5l0,0l0,0c-4.5-2.5-10-0.4-12.8,1.1C62.8,52.5,60.2,35.4,59.6,29
	c1.5,0.4,4,1.7,7.9,5.2c8.3,7.4,17.9-3.6,17.9-3.6s-4.5-1.3-9.8-5.6c-4.7-3.8-11.6-3.3-16.2,1.7c0-0.2,0-0.3,0-0.3
	c0-0.7-0.4-1.3-1.1-1.6c-0.5-0.3-1.2-0.2-1.7,0C48.5,14.4,35.2,12.9,26.4,20c-9.2,7.5-17.2,9.7-17.2,9.7S26.1,48.9,40.6,36
	c6.3-5.6,10.5-8,13.2-9C35,41.4,29.1,59.2,27.2,67.5c-3.3-1-9.6-1.9-14.8,3c-7,6.5-5.4,31.4,13.4,33.7h0.1c0.3,0,0.5,0.1,0.8,0.1
	c0.1,0,0.2,0,0.3,0c0.2,0,0.4,0,0.7,0c0.2,0,0.3,0,0.5,0s0.3,0,0.5,0c0.3,0,0.7,0,1,0c0.7,0,1.4-0.1,2.1-0.1
	C44,103.1,49.7,96.7,51.2,89c1.5,2.9,3.7,5.4,6.7,7.2l0,0c0.4,0.3,0.9,0.5,1.4,0.8c0,0,0.1,0,0.1,0.1c0.5,0.2,0.9,0.4,1.4,0.6
	c0.1,0,0.2,0.1,0.3,0.1c0.4,0.2,0.9,0.3,1.4,0.4c0.2,0,0.4,0.1,0.5,0.1c0.4,0.1,0.8,0.2,1.2,0.3c0.3,0.1,0.6,0.1,0.9,0.1
	s0.6,0.1,1,0.1c0.7,0.1,1.3,0.1,2,0.1C90.8,99.6,94.2,82,89.6,68.3z M55.9,30.1c0.7,6.6,3,21.1,10.2,31.4c-3.4-0.9-8.5-1.2-13.2,2.6
	c-1.9,1.6-3.3,4.4-4,7.7c-0.1-0.2-0.2-0.5-0.3-0.7c-0.1-0.1-0.1-0.3-0.2-0.4c-0.1-0.3-0.3-0.5-0.4-0.8c-0.1-0.1-0.2-0.3-0.2-0.4
	c-0.1-0.2-0.3-0.4-0.4-0.6c-0.1-0.1-0.2-0.2-0.3-0.4c-0.1-0.2-0.3-0.4-0.4-0.5c-0.1-0.1-0.2-0.2-0.3-0.3c-0.1-0.2-0.3-0.3-0.4-0.5
	c-0.1-0.1-0.2-0.2-0.3-0.3c-0.2-0.1-0.3-0.3-0.5-0.4c-0.1-0.1-0.2-0.1-0.3-0.2c-0.2-0.1-0.4-0.3-0.6-0.4c-0.1,0-0.1-0.1-0.2-0.1
	c-4.6-2.8-10-0.6-13,1.2C33.3,59,39.2,43,55.9,30.1z"/>
</svg>
