<?xml version="1.0" encoding="utf-8"?>
<!-- Generator: Adobe Illustrator 19.2.1, SVG Export Plug-In . SVG Version: 6.00 Build 0)  -->
<svg version="1.1" id="Ebene_1" xmlns="http://www.w3.org/2000/svg" xmlns:xlink="http://www.w3.org/1999/xlink" x="0px" y="0px"
	 viewBox="0 0 37.2 100" style="enable-background:new 0 0 37.2 100;" xml:space="preserve">
<style type="text/css">
	.st0{fill:#FFFFFF;stroke:#000000;stroke-miterlimit:10;}
</style>
<circle class="st0" cx="18.2" cy="14" r="7"/>
<path class="st0" d="M9.9,89.1c0,2.2,1.8,3.9,3.9,3.9c2.2,0,3.9-1.8,3.9-3.9l0-33h1.8l0,33c0,2.2,1.8,3.9,3.9,3.9s3.9-1.8,3.9-3.9
	l0-56.9h1.7v21c0,4.2,5.5,4.2,5.5,0V31.7c0-4.7-2.7-9.2-8.2-9.2l-15.7,0c-5,0-8.1,4.1-8.1,9.1v21.5c0,4.2,5.5,4.2,5.5,0v-21h1.8
	L9.9,89.1z"/>
</svg>
