<?xml version="1.0" encoding="utf-8"?>
<!-- Generator: Adobe Illustrator 19.2.1, SVG Export Plug-In . SVG Version: 6.00 Build 0)  -->
<svg version="1.1" id="Ebene_1" xmlns="http://www.w3.org/2000/svg" xmlns:xlink="http://www.w3.org/1999/xlink" x="0px" y="0px"
	 viewBox="0 0 100 125" style="enable-background:new 0 0 100 125;" xml:space="preserve">
<style type="text/css">
	.st0{fill:none;}
	.st1{fill:#FFFFFF;stroke:#000000;stroke-miterlimit:10;}
</style>
<g>
	<path class="st0" d="M81.9,27.8c2-0.4,4.1-0.8,4.9-1.2c0.1,0,0.1-0.1,0.1-0.1c0.1-0.5-0.4-1.6-1.1-2.6L81.9,27.8z"/>
	<path class="st0" d="M69.1,40.6l-9.9,9.9C61.8,49.7,66.6,47.3,69.1,40.6z"/>
	<path class="st1" d="M88.5,19.3c-0.5-0.5-1.4-0.5-1.9,0L51.9,54c-4.7,2.1-10,6.5-10,6.5C41.7,59.7,41,60,41,60l-1.1-2.2h-2.8
		L35.8,60c-18.5,1.2-20.5,6.2-20.5,6.2v1.3c-1.2,0.8-2.3,2.7-2.3,2.7s0,0.1-0.1,0.3c-2.1,0.7-3.6,2.6-3.6,4.9c0,2.9,2.3,5.2,5.2,5.2
		c1.8,0,3.4-0.9,4.3-2.3c7.2,0.6,21,0.6,21,0.6s3-0.2,6.8-0.5c1.5,1.7,3.7,2.7,6.2,2.7c3.1,0,5.9-1.7,7.4-4.3c7.1-1.3,16.3-5,16.3-5
		c3.3-4.7,4.3-21,0-21.3s-19.9,5.3-19.9,5.3v-2.6l1-1v0.1c0.1,0,10.4-1.3,13.6-13.6l9.1-9.1c2.1-0.3,5.9-1,7.1-1.7
		c0.4-0.2,0.7-0.6,0.8-1c0.3-1.1-0.7-2.8-1.4-3.8l1.7-1.7C89,20.7,89,19.9,88.5,19.3z M14.4,76.6c-0.6,0-1.2-0.5-1.2-1.2
		s0.5-1.2,1.2-1.2s1.2,0.5,1.2,1.2C15.6,76,15.1,76.6,14.4,76.6z M52.7,74.6c-1,0-1.8-0.8-1.8-1.8s0.8-1.7,1.8-1.7s1.7,0.8,1.7,1.7
		C54.5,73.9,53.7,74.6,52.7,74.6z M59.2,50.5l9.9-9.9C66.6,47.3,61.8,49.7,59.2,50.5z M86.9,26.5c0,0.1,0,0.1-0.1,0.1
		c-0.8,0.4-2.9,0.9-4.9,1.2l3.9-3.9C86.4,24.9,87,25.9,86.9,26.5z"/>
	<circle cx="52.7" cy="72.8" r="8.3"/>
	<circle cx="14.6" cy="75.4" r="5.2"/>
</g>
</svg>
