<?xml version="1.0" encoding="utf-8"?>
<!-- Generator: Adobe Illustrator 19.2.1, SVG Export Plug-In . SVG Version: 6.00 Build 0)  -->
<svg version="1.1" id="Ebene_1" xmlns="http://www.w3.org/2000/svg" xmlns:xlink="http://www.w3.org/1999/xlink" x="0px" y="0px"
	 viewBox="0 0 28.9 36.1" style="enable-background:new 0 0 28.9 36.1;" xml:space="preserve">
<style type="text/css">
	.st0{fill:#FFFFFF;stroke:#000000;stroke-miterlimit:10;}
</style>
<path class="st0" d="M5.7,12.7c0,0-1.7,2.8-1.7,3.7s0.8,1.7,1.7,1.7s1.7-0.8,1.7-1.7S5.7,12.7,5.7,12.7z"/>
<path class="st0" d="M8.4,20.4c0,0.9,0.8,1.7,1.7,1.7s1.7-0.8,1.7-1.7c0-0.9-1.7-3.7-1.7-3.7S8.4,19.5,8.4,20.4z"/>
<path class="st0" d="M14.4,12.7c0,0-1.7,2.8-1.7,3.7s0.8,1.7,1.7,1.7s1.7-0.8,1.7-1.7S14.4,12.7,14.4,12.7z"/>
<path class="st0" d="M17.1,20.4c0,0.9,0.8,1.7,1.7,1.7s1.7-0.8,1.7-1.7c0-0.9-1.7-3.7-1.7-3.7S17.1,19.5,17.1,20.4z"/>
<path class="st0" d="M21.5,16.4c0,0.9,0.8,1.7,1.7,1.7s1.7-0.8,1.7-1.7s-1.7-3.7-1.7-3.7S21.5,15.5,21.5,16.4z"/>
</svg>
