<?xml version="1.0" encoding="utf-8"?>
<!-- Generator: Adobe Illustrator 19.2.1, SVG Export Plug-In . SVG Version: 6.00 Build 0)  -->
<svg version="1.1" id="Ebene_1" xmlns="http://www.w3.org/2000/svg" xmlns:xlink="http://www.w3.org/1999/xlink" x="0px" y="0px"
	 viewBox="0 0 100 125" style="enable-background:new 0 0 100 125;" xml:space="preserve">
<style type="text/css">
	.st0{fill:#FFFFFF;stroke:#000000;stroke-miterlimit:10;}
</style>
<path class="st0" d="M93.8,68.3c1.5-1.2,2.2-3.3,1.5-5.3c-0.8-2.6-3.6-4-6.2-3.1c-0.1,0-0.2,0.1-0.3,0.1c-0.2-0.5-0.5-0.9-0.9-1.2
	c-1.2-19.6-17.5-35.2-37.4-35.2c-19.4,0-35.4,14.9-37.3,33.8c-1.8,0.9-3,2.7-3.2,4.7c-0.5,0-1,0.1-1.4,0.3c-2.7,0.9-4.2,3.9-3.3,6.6
	c0.7,2,2.4,3.3,4.3,3.5c-0.1,0.7-0.1,1.4,0.2,2.1c0.8,2.4,3.4,3.8,5.9,2.9c0.8-0.3,1.5-0.7,2-1.3c1.2,2.3,3.9,3.4,6.4,2.6
	c1.5-0.5,2.6-1.5,3.1-2.8c1.3,0.8,2.9,1,4.5,0.5c2.8-0.9,4.3-3.9,3.4-6.7c-0.2-0.6-0.5-1.1-0.8-1.6c1.5-1.2,2.2-3.3,1.5-5.3
	c-0.8-2.6-3.6-3.9-6.2-3.1C30.3,48.8,39.5,40,50.7,40c10.7,0,19.5,8,20.8,18.4c-1,1-1.6,2.3-1.8,3.7c-0.5,0-1,0.1-1.4,0.3
	c-2.7,0.9-4.2,3.9-3.3,6.6c0.7,2,2.4,3.3,4.3,3.5c-0.1,0.7-0.1,1.4,0.2,2.1c0.8,2.4,3.4,3.8,5.9,2.9c0.8-0.3,1.5-0.7,2-1.3
	c1.2,2.3,3.9,3.4,6.4,2.6c1.5-0.5,2.6-1.5,3.1-2.8c1.3,0.8,2.9,1,4.5,0.5c2.8-0.9,4.3-3.9,3.4-6.7C94.5,69.3,94.2,68.7,93.8,68.3z
	 M16.8,56.7c2.1-16.8,16.5-29.9,33.8-29.9c17.5,0,32,13.3,33.9,30.3c-0.3,0-0.7,0-1,0.1c-1.9-16.5-15.9-29.4-32.9-29.4
	c-16.9,0-30.8,12.7-32.8,29.1C17.5,56.8,17.1,56.8,16.8,56.7z M74.6,56.8c-2-11.4-12-20.1-24-20.1c-12.2,0-22.4,9.1-24.1,20.8
	c-0.3-0.1-0.7-0.2-1-0.2C27.4,45,37.9,35.6,50.7,35.6c12.5,0,23,9.1,25,21.1C75.3,56.7,75,56.7,74.6,56.8z M79.2,57.9
	c-1.6-14.4-13.7-25.6-28.5-25.6c-14.8,0-27,11.3-28.5,25.7c-0.5,0.3-0.9,0.7-1.2,1.1c1-15.5,13.9-27.9,29.7-27.9
	c15.8,0,28.7,12.3,29.7,27.8C80,58.6,79.6,58.2,79.2,57.9z"/>
</svg>
