<?xml version="1.0" encoding="utf-8"?>
<!-- Generator: Adobe Illustrator 19.2.1, SVG Export Plug-In . SVG Version: 6.00 Build 0)  -->
<svg version="1.1" id="Ebene_1" xmlns="http://www.w3.org/2000/svg" xmlns:xlink="http://www.w3.org/1999/xlink" x="0px" y="0px"
	 viewBox="0 0 841.9 744.1" style="enable-background:new 0 0 841.9 744.1;" xml:space="preserve">
<style type="text/css">
	.st0{fill:#FFFFFF;stroke:#000000;stroke-miterlimit:10;}
</style>
<g>
	<path class="st0" d="M471.7,536.7c9.4-6.4,14.1-15.8,17.4-26.5c3.4-10.9,5.3-22.3,10.4-32.6c8.5-17.1,21.6-36.3,34.1-51.8
		c28.9-33.5,68.2-54,99.5-85.3c22.2-22.2,42.6-54.6,39.7-87.5c18.2,62.6,38,147.2,0,206.2c-24.4,38.6-50,64.8-88.1,88.7
		c-25,16.4-56.8,41.5-56.8,74.9c0,20.5,8,25.5,19.3,41c-63.1,30.2-113.6-68.7-130.6-110.3c-13.1-31.8-28.9-95.4-15.9-128.4
		c7.6-19.1,36.2-26,51.2-11.4c15.7,15.3,12.6,36.9,14.5,57.2c2.1,21.7,2.2,43.4,4.2,65 M585.5,120.7c4.3-13,2.3-24.8-18-31.4
		c-11.3-3.7-22.6-2.7-33.7,1.1c-12.8,4.3-24.7,11-35,19.9c-10.2,8.8-19.9,19-27.7,29.9c-6.6,9.2-11.8,20-14.5,31
		c-12.6,51.5,9.2,108.7-17.2,156.8c27.5-59.5,8-151-38.9-199.1c-19.9-20.4-50-31.6-77.2-37.7c-18.4-4-39.4-7.7-57.8-2.2
		c-17.8,5.3-25.5,7.9-18.4,26.7c4.2,10.9,12.9,16.1,20.1,24.7c28.7,33.9,28.5,73.5,26.5,115.9c-1.2,27.1-2.1,55,10.5,79.9
		c27.6,54.5,106.2,77.2,161.3,55.3c25.6-10.2,52.3-34.5,65-59c14.7-28.5,13-64.5,14.2-95.7c1.2-30.5,11.4-62.4,26.5-88.8
		C576.5,139.2,582.5,129.6,585.5,120.7z M508,82.1c0.2-1.6,0-3.3-0.6-5.2c-1-2.7-1.8-5-3.3-7.6c-1.3-2.2-3.2-3.9-4.7-6.1
		c-1.5-2.3-3.2-4.7-5.2-6.5c-6.6-5.9-13-11.8-20.4-16.9c-13-9.1-28-15.6-43.5-18.3c-15-2.6-32.3-1.1-46.5,4.5
		c-13.2,5.2-27.2,10.5-37.7,20.6c-4.4,4.2-11.4,11.2-11.5,17.8c-0.1,9.6,12,10.4,18.8,12.8c5,1.7,10.1,3.6,15,5.6
		c14.6,5.9,28.9,13.2,41.5,22.8c9.9,7.6,20,18,24.8,29.7c0.9,2.1,1.7,4.2,2.8,6.1c1.7,3.1,3.7,13.7,9,10.9c3.7-2,5.8-10.2,7.2-14
		c2.5-6.1,5.6-11.4,9.4-16.8c6.1-9,14.7-15.9,23.9-21.6c4.2-2.6,8.2-4.9,12.1-7.6C503.4,89.5,507.3,86.6,508,82.1z M222.2,470.3
		c5.2,10.7,10.8,21.2,17.2,31.2c23.3,36.7,56.9,63.7,91.4,89.4c27.7,20.6,53.5,37.9,88.1,45.6c19,4.3,22.2-2.9,13.9-19.5
		c-4.8-9.7-13-16.9-18.5-26.1c-11.4-18.9-23.1-38.9-27.5-61.3c-3.4-17.7-2.5-34.2-9.1-51.4c-9.6-24.9-26.4-43.7-45.3-62.7
		c-19.3-19.4-40.1-37.2-57.3-58.6c-19.5-24.5-36.2-59-29.6-91.4C220.4,325.4,191,407.3,222.2,470.3z"/>
</g>
</svg>
