<?xml version="1.0" encoding="utf-8"?>
<!-- Generator: Adobe Illustrator 19.2.1, SVG Export Plug-In . SVG Version: 6.00 Build 0)  -->
<svg version="1.1" id="Ebene_1" xmlns="http://www.w3.org/2000/svg" xmlns:xlink="http://www.w3.org/1999/xlink" x="0px" y="0px"
	 viewBox="0 0 100 100" style="enable-background:new 0 0 100 100;" xml:space="preserve">
<style type="text/css">
	.st0{fill:#FFFFFF;stroke:#000000;stroke-miterlimit:10;}
</style>
<g>
	<path class="st0" d="M2.6,55.8v6.9c0,0.7,0.3,2.2,0.5,2.6c0.2,0.5,1,2.1,1.9,3.4c1,1.2,0.3,2.1,0.2,2.9c-0.3,0.9-0.5,2.2-0.5,3.1
		v9.7c0,0.5,0.5,0.7,1,0.7l-0.2,2.4c0.9,0,1.7-0.3,2.6-0.3c0.7-0.2,1.4-0.7,2.1-0.9c-0.3-0.7-0.9-1.4-1.5-1.7
		c-0.5-0.2-0.2-0.7-0.2-0.7C8.6,80.9,9,78,9.3,75.1c0,0,0-1.2,0.9-1.9c0.9-0.7,2.4-1.7,2.4-1.7s0.5-0.5,0.9-0.2
		c0.3,0.2,0.3,0.5,0.3,0.9c0.2,0.3,1.2,6.6,1.2,6.6s1,4.5,1.2,5c0.2,0.5,0.2,0.5,0.7,0.5c0.5,0.2,0.9,0,1,0.5
		c0.2,0.5,0.3,1.4,0.3,1.4l0.3,1.2c0.5-0.5,1.4,0,1.9-0.3c0.5-0.2,0.7-0.4,1.2-0.5c0-0.5-0.3-1.2-0.3-1.4c-0.2-0.5-0.7-0.5-0.9-0.7
		v-0.5c-0.3-1.9-0.7-4-1.2-6c0-2.1,0-4.1-0.2-6.4c0.2,0-0.2-3.8,2.4-5.2c2.2-1,3.1,0,4.8,0.3c1.9,0.3,7.1,1.7,15.2,1.7s9-1,10.5-0.7
		c1,0.3,1.9,1.7,2.9,2.8c1,1.2,1,2.2,1,2.8s-0.7,4.1-0.9,4.8c-0.5,1.5-0.5,6-0.5,6c0.3,0.2,0.7,0.4,1.2,0.5c0,0.7,0,1.5,0.2,2.4
		c0.7,0.3,1.7,0.5,2.4,0.5c0.7,0,1.4-0.9,2.1-1.2c-0.2-0.9-1-2.6-1.4-3.1c-0.3-0.7-0.2-0.9-0.2-1c0,0,0-2.1,0.2-2.8
		c0-0.5,0.7-3.6,0.9-4.3c0.3-0.7,0.9-2.6,1.5-3.5c0.9-0.7,1.7-1,1.7-1c0.3,3.3,0.3,11.7,0.3,12.6c0,0.7,0.7,1,1,1.2
		c0.5,0.2,1,1.2,1.2,2.1h4.3c-0.2-1.2-0.7-3.1-0.7-3.1s-1.5-1.9-1.5-2.1c-0.2-0.2-0.2-0.7-0.2-0.9c0.2,0,0.7-7.8,0.7-8.1
		c0-0.3,0.3-2.8,1-3.6c0.7-0.9,2.1-1.4,2.8-1.7c0.5-0.3,3.3-2.1,4-3.1c0.9-1,2.4-3.3,3.4-5.5c0.9-2.1,2.6-6.2,3.1-8.3
		c0.5-2.1,1.6-5.9,1.6-7.1c0.2-1.2,0.5-4.7,0.5-5.4c0-0.7,0.3-1.7,0.9-2.1c0.7-0.3,1.6-0.5,1.7-0.5c0.3,0,0.9,0.3,1.6,0.5
		c0.9,0.2,5,1.5,5.5,1.7h1c0,0,0.5-0.2,0.7-0.2c0.2-0.2,0.9-1,1.4-1.2c0.5-0.2,1.7-0.3,1.9-0.9c0.2-0.3,0.5-0.5,0.5-1
		c0-0.3-0.3-2.1-0.7-2.8c-0.9-1.4-2.8-4-3.6-4.8c-0.7-1-3.6-4.3-4.5-5c-0.9-0.7-2.9-2.6-4-2.9c-0.9-0.3-1.9-0.9-3.3-1.2
		c-1.4-0.2-1.9,0-1.9,0s-0.5-1.6-0.9-2.1c-0.3-0.5-1.6-1.6-2.1-2.1c-0.7-0.5-1.6-0.9-2.1-0.5c-0.5,0.5-0.5,1.2-0.2,2.1
		c0.5,0.7,0.7,1.9,0.7,1.9s-5,2.9-6.2,3.8c-4,2.6-6.7,6.5-9,6.9c-2.2,0.3-3.4,0.2-5,0.2c-10.3-0.5-32.1-1.6-35-1.6
		c-3.1,0-6-0.2-7.8,0.4c-1.7,0.7-7.2,2.6-10.2,6.5C1.6,36.6-0.2,40.8,0,44c0.3,3.3,1.2,4.3,1.4,5c0.2,0.7,1,1.7,1,3.8L2.6,55.8z"/>
</g>
</svg>
