<?xml version="1.0" encoding="utf-8"?>
<!-- Generator: Adobe Illustrator 19.2.1, SVG Export Plug-In . SVG Version: 6.00 Build 0)  -->
<svg version="1.1" id="Ebene_1" xmlns="http://www.w3.org/2000/svg" xmlns:xlink="http://www.w3.org/1999/xlink" x="0px" y="0px"
	 viewBox="0 0 25.3 125" style="enable-background:new 0 0 25.3 125;" xml:space="preserve">
<style type="text/css">
	.st0{fill:#FFFFFF;stroke:#000000;stroke-miterlimit:10;}
</style>
<g>
	<path class="st0" d="M15.7,77V26.4c1.8-4,10.7-9.9,6.3-16.4h-9.3H3.4C-1,16.5,7.9,22.4,9.6,26.4V77C9,85.9,0,78.7,0,84.7
		c0,17.7,11.1,25.8,12.7,25.2c1.5,0.6,12.7-7.5,12.7-25.2C25.3,78.7,16.4,85.9,15.7,77z M12.7,21.9c0,0-9.5-8.6-7.6-8.6h7.6h7.6
		C22.2,13.3,12.7,21.9,12.7,21.9z"/>
</g>
</svg>
