<?xml version="1.0" encoding="utf-8"?>
<!-- Generator: Adobe Illustrator 19.2.1, SVG Export Plug-In . SVG Version: 6.00 Build 0)  -->
<svg version="1.1" id="Ebene_1" xmlns="http://www.w3.org/2000/svg" xmlns:xlink="http://www.w3.org/1999/xlink" x="0px" y="0px"
	 viewBox="0 0 100 125" style="enable-background:new 0 0 100 125;" xml:space="preserve">
<style type="text/css">
	.st0{fill:#FFFFFF;stroke:#000000;stroke-miterlimit:10;}
</style>
<g>
	<path class="st0" d="M57.2,71.2c-3.8-0.4-5-1.8-5-3.1c0-0.2,0-1.9,0-4.1c3.1-1.7,7.4-5.7,4-22.1c-1.3-6.2,2.1-10.9,2.1-21.4
		c0-1.3,0.5-10.4-8.2-10.4l0,0l0,0l0,0c-8.1,0-8.2,9.2-8.2,10.4c0,10.6,3.4,15.3,2.1,21.4c-3.3,16.1,1,20.2,4.2,22
		c0,2.2-0.1,4-0.1,4.2c0,1.2-1.3,2.7-5.1,3s-6.3,1-6.3,3.5s-0.8,29.6,11.2,35c0,0,1,0.4,1.9,0.4l0,0c0.9,0,1.9-0.4,1.9-0.4
		c12.1-5.3,11.7-32.4,11.8-34.8C63.5,72.3,61,71.6,57.2,71.2z M50,19.1c-1.3,0-2.3-1-2.3-2.3s1-2.3,2.3-2.3s2.3,1,2.3,2.3
		C52.4,18,51.3,19.1,50,19.1z"/>
</g>
</svg>
