<?xml version="1.0" encoding="utf-8"?>
<!-- Generator: Adobe Illustrator 19.2.1, SVG Export Plug-In . SVG Version: 6.00 Build 0)  -->
<svg version="1.1" id="Ebene_1" xmlns="http://www.w3.org/2000/svg" xmlns:xlink="http://www.w3.org/1999/xlink" x="0px" y="0px"
	 viewBox="0 0 100 125" style="enable-background:new 0 0 100 125;" xml:space="preserve">
<style type="text/css">
	.st0{fill:#FFFFFF;stroke:#000000;stroke-miterlimit:10;}
</style>
<path class="st0" d="M89.2,20.1c-14.1,0-33.2,17.6-35.8,28.6c-0.6-1.3-1.4-2.1-2.1-2.6c1.3-4.3,7.4-9.8,8.3-14.3
	c0.1-0.5-0.9-0.9-1-0.4c-1.3,5.3-6.5,9.9-7.6,14.5c-0.3-0.2-0.5-0.2-0.8-0.3l0,0l0,0l0,0l0,0c-0.2,0-0.5,0.1-0.8,0.3
	c-1.1-4.6-6.3-9.3-7.6-14.5c-0.1-0.5-1.1,0-1,0.4c1,4.4,7.1,10,8.3,14.3c-0.7,0.5-1.5,1.4-2.1,2.6c-2.6-11-21.7-28.6-35.8-28.6
	c-4.7,0-6.7,0.8-6.7,3.3c0,7.3,11.5,29,15.7,31.3c1.7,1,3.9,1.2,5.9,0.8c-2.5,2-4.3,5.2-4.3,9.5c0,10.4,7.2,15.7,14.3,15.7
	c7.6,0,11.2-6.6,11.2-22.9c0.8,2,1.7,4,1.7,7.6c0,6.2-1.3,14.1,1.1,14.3l0,0l0,0l0,0l0,0c2.4-0.2,1.1-8.1,1.1-14.3
	c0-3.6,0.9-5.7,1.7-7.6c0,16.3,3.6,22.9,11.2,22.9c7.1,0,14.3-5.3,14.3-15.7c0-4.3-1.8-7.5-4.3-9.5c2,0.4,4.2,0.1,5.9-0.8
	c4.2-2.3,15.7-24.1,15.7-31.3C95.9,20.9,93.8,20.1,89.2,20.1z"/>
</svg>
