<?xml version="1.0" encoding="utf-8"?>
<!-- Generator: Adobe Illustrator 19.2.1, SVG Export Plug-In . SVG Version: 6.00 Build 0)  -->
<svg version="1.1" id="Ebene_1" xmlns="http://www.w3.org/2000/svg" xmlns:xlink="http://www.w3.org/1999/xlink" x="0px" y="0px"
	 viewBox="0 0 128 160" style="enable-background:new 0 0 128 160;" xml:space="preserve">
<style type="text/css">
	.st0{fill:#FFFFFF;stroke:#000000;stroke-miterlimit:10;}
</style>
<g>
	<circle class="st0" cx="64" cy="84" r="31.6"/>
	<path class="st0" d="M64,44.9c1.4,0,2.5-1.1,2.5-2.5V24.2c0-1.4-1.1-2.5-2.5-2.5s-2.5,1.1-2.5,2.5v18.2
		C61.5,43.8,62.6,44.9,64,44.9z"/>
	<path class="st0" d="M64,123.1c-1.4,0-2.5,1.1-2.5,2.5v18.2c0,1.4,1.1,2.5,2.5,2.5s2.5-1.1,2.5-2.5v-18.2
		C66.5,124.2,65.4,123.1,64,123.1z"/>
	<path class="st0" d="M123.8,81.5h-18.2c-1.4,0-2.5,1.1-2.5,2.5s1.1,2.5,2.5,2.5h18.2c1.4,0,2.5-1.1,2.5-2.5
		C126.2,82.6,125.1,81.5,123.8,81.5z"/>
	<path class="st0" d="M4.2,86.5h18.2c1.4,0,2.5-1.1,2.5-2.5s-1.1-2.5-2.5-2.5H4.2c-1.4,0-2.5,1.1-2.5,2.5
		C1.8,85.4,2.9,86.5,4.2,86.5z"/>
	<path class="st0" d="M93.4,57.1c0.6,0,1.3-0.2,1.7-0.7L108,43.5c1-1,1-2.5,0-3.5s-2.5-1-3.5,0L91.6,52.9c-1,1-1,2.5,0,3.5
		C92.1,56.9,92.7,57.1,93.4,57.1z"/>
	<path class="st0" d="M32.9,111.6L20,124.5c-1,1-1,2.5,0,3.5c0.5,0.5,1.1,0.7,1.7,0.7s1.3-0.2,1.7-0.7l12.9-12.9c1-1,1-2.5,0-3.5
		C35.4,110.7,33.9,110.7,32.9,111.6z"/>
	<path class="st0" d="M95.1,111.6c-1-1-2.5-1-3.5,0s-1,2.5,0,3.5l12.9,12.9c0.5,0.5,1.1,0.7,1.7,0.7s1.3-0.2,1.7-0.7
		c1-1,1-2.5,0-3.5L95.1,111.6z"/>
	<path class="st0" d="M32.9,56.4c0.5,0.5,1.1,0.7,1.7,0.7c0.6,0,1.3-0.2,1.7-0.7c1-1,1-2.5,0-3.5L23.5,40c-1-1-2.5-1-3.5,0
		s-1,2.5,0,3.5L32.9,56.4z"/>
	<path class="st0" d="M78.3,47.6c0.3,0.1,0.6,0.2,0.9,0.2c1,0,1.9-0.6,2.3-1.6l8.6-21.9c0.5-1.3-0.1-2.7-1.4-3.2s-2.7,0.1-3.2,1.4
		l-8.6,21.9C76.4,45.7,77,47.1,78.3,47.6z"/>
	<path class="st0" d="M49.7,120.4c-1.3-0.5-2.7,0.1-3.2,1.4l-8.6,21.9c-0.5,1.3,0.1,2.7,1.4,3.2c0.3,0.1,0.6,0.2,0.9,0.2
		c1,0,1.9-0.6,2.3-1.6l8.6-21.9C51.6,122.3,51,120.9,49.7,120.4z"/>
	<path class="st0" d="M125.4,105.5l-21.9-8.6c-1.3-0.5-2.7,0.1-3.2,1.4s0.1,2.7,1.4,3.2l21.9,8.6c0.3,0.1,0.6,0.2,0.9,0.2
		c1,0,1.9-0.6,2.3-1.6C127.3,107.4,126.7,106,125.4,105.5z"/>
	<path class="st0" d="M24.4,71.1c0.3,0.1,0.6,0.2,0.9,0.2c1,0,1.9-0.6,2.3-1.6c0.5-1.3-0.1-2.7-1.4-3.2L4.4,57.9
		c-1.3-0.5-2.7,0.1-3.2,1.4c-0.5,1.3,0.1,2.7,1.4,3.2L24.4,71.1z"/>
	<path class="st0" d="M99.8,68.4c0.4,0.9,1.3,1.5,2.3,1.5c0.3,0,0.7-0.1,1-0.2l21.6-9.4c1.2-0.5,1.8-2,1.3-3.2s-2-1.8-3.2-1.3
		l-21.6,9.4C99.8,65.7,99.3,67.1,99.8,68.4z"/>
	<path class="st0" d="M28.2,99.6c-0.5-1.2-2-1.8-3.2-1.3l-21.6,9.4c-1.2,0.5-1.8,2-1.3,3.2c0.4,0.9,1.3,1.5,2.3,1.5
		c0.3,0,0.7-0.1,1-0.2l21.6-9.4C28.2,102.3,28.7,100.9,28.2,99.6z"/>
	<path class="st0" d="M82.9,121.1c-0.5-1.2-2-1.8-3.2-1.3s-1.8,2-1.3,3.2l9.4,21.6c0.4,0.9,1.3,1.5,2.3,1.5c0.3,0,0.7-0.1,1-0.2
		c1.2-0.5,1.8-2,1.3-3.2L82.9,121.1z"/>
	<path class="st0" d="M45.1,46.9c0.4,0.9,1.3,1.5,2.3,1.5c0.3,0,0.7-0.1,1-0.2c1.2-0.5,1.8-2,1.3-3.2l-9.4-21.6
		c-0.5-1.2-2-1.8-3.2-1.3s-1.8,2-1.3,3.2L45.1,46.9z"/>
</g>
</svg>
