<?xml version="1.0" encoding="utf-8"?>
<!-- Generator: Adobe Illustrator 19.2.1, SVG Export Plug-In . SVG Version: 6.00 Build 0)  -->
<svg version="1.1" id="Ebene_1" xmlns="http://www.w3.org/2000/svg" xmlns:xlink="http://www.w3.org/1999/xlink" x="0px" y="0px"
	 viewBox="0 0 67.5 125" style="enable-background:new 0 0 67.5 125;" xml:space="preserve">
<style type="text/css">
	.st0{fill:#FFFFFF;stroke:#000000;stroke-miterlimit:10;}
</style>
<path class="st0" d="M67.3,92.3L52.8,67.9c-0.2-0.3-0.4-1,0.5-1.1l3.6-0.4c0.5,0,0.9-0.6,0.9-1.1c0-0.2-0.1-0.4-0.2-0.6L46,44.6
	c-0.2-0.4-0.1-0.9,0.4-1l2.1-0.4c0.5-0.1,0.8-0.7,0.8-1.3c0-0.1-0.1-0.3-0.1-0.4l-8.4-14.6c-0.2-0.3,0-0.7,0.3-0.8l1.1-0.3
	c0.5-0.2,0.8-0.8,0.6-1.4c0-0.1-0.1-0.2-0.1-0.2l-8-13.9c-0.2-0.3-0.5-0.5-0.8-0.5s-0.6,0.2-0.8,0.5l-8,13.9c0,0.1-0.1,0.2-0.1,0.2
	c-0.2,0.5,0.1,1.2,0.6,1.4l1.1,0.3c0.3,0.1,0.5,0.5,0.3,0.8l-8.4,14.6c-0.1,0.1-0.1,0.2-0.1,0.4c-0.1,0.6,0.2,1.2,0.7,1.3l2.1,0.4
	c0.5,0.1,0.6,0.6,0.4,1L10,64.6c-0.1,0.2-0.2,0.4-0.2,0.6c0,0.6,0.4,1.1,0.9,1.1l3.6,0.4c0.8,0.1,0.6,0.9,0.5,1.1L0.2,92.3
	C0.1,92.5,0,92.7,0,92.9C0,93.4,0.4,94,0.9,94h28.8v16h8V94h28.8c0.5,0,0.9-0.6,0.9-1.1C67.5,92.7,67.4,92.5,67.3,92.3z"/>
</svg>
