<?xml version="1.0" encoding="utf-8"?>
<!-- Generator: Adobe Illustrator 19.2.1, SVG Export Plug-In . SVG Version: 6.00 Build 0)  -->
<svg version="1.1" id="Ebene_1" xmlns="http://www.w3.org/2000/svg" xmlns:xlink="http://www.w3.org/1999/xlink" x="0px" y="0px"
	 viewBox="0 0 100 125" style="enable-background:new 0 0 100 125;" xml:space="preserve">
<style type="text/css">
	.st0{fill:#FFFFFF;stroke:#000000;stroke-miterlimit:10;}
</style>
<path class="st0" d="M63,23.9c-0.1,0-0.2,0-0.3,0c2-5.7,4.5-10.2,9.3-14.8C64.4,12.2,55,23,55,23h-1c0,0-3-10.1-6.8-11.6
	C48,14.9,48.5,19.7,47,23h-1c0,0-9.3-9.2-16.6-12c4.4,4.1,6.9,8.1,8.9,13C15,22,2,35.2,2,59.5C2,81.3,20,99,50,99s48-17.7,48-39.5
	C98,35,85,22,63,23.9z M16.8,49L16.8,49c-0.9,5-8.7,6.1-6.2-1.6C12.1,41.7,19,30,33,29C24.1,32.4,17.2,43,16.8,49z"/>
</svg>
