<?xml version="1.0" encoding="utf-8"?>
<!-- Generator: Adobe Illustrator 19.2.1, SVG Export Plug-In . SVG Version: 6.00 Build 0)  -->
<svg version="1.1" id="Ebene_1" xmlns="http://www.w3.org/2000/svg" xmlns:xlink="http://www.w3.org/1999/xlink" x="0px" y="0px"
	 viewBox="0 0 100 125" style="enable-background:new 0 0 100 125;" xml:space="preserve">
<style type="text/css">
	.st0{fill:#FFFFFF;stroke:#000000;stroke-miterlimit:10;}
</style>
<g>
	<g>
		<g>
			<g>
				<path class="st0" d="M69.5,11.6c-4.2-0.4-13.4-1.3-17.6,5.1c-0.2,1.4-0.1,2-0.1,2c0,0.5-0.3,1.2-0.7,1.6c0,0-3,1.9-3,4
					c1.2,1.2,0.6-0.3,4.2,1.7c1.7,1.9,4.2,2.3-0.1,8.4c-3.1,3.1-15.7,24.2-16,24.8c-0.3,0.5,0.4,1.4,0.4,1.4s-4.4,6.9,2.2,0.5
					c2.1-2,0.1,2.2-2.8,6.8c-3.7,5.9-8.6,12.5-10.7,15.6L14.4,99.2c-2,4-1.3,4.4-0.6,3.6l-1.6,3.1c-1.1,2,1,1.7,2.8,0.4
					c0.3,2.1,2.1,0.7,2.3,0.2c0.2,2.7,1.3,1.5,1.6,0.6l3-4.3c0.2-0.3,0,0.4,0.8,0.4s2.5-2,2.5-2s10.4-16.8,13-20.9l8.4-10.2
					c0.4-0.4,1-0.4,1.4,0l9,8l-0.3,2.2c-0.2,1.1,0.2,1.2,0.9,0.4c0,0,0.5-0.9,1.4-1s2,1.1,2.9,2.9l-0.4,0.7
					c-1.8,1.3,0.6,1.1,1.2,0.7s0.6-1.6,0.5-2.3c-0.3-0.8-2-2.5-2-2.5c-0.4-0.4-0.3-0.9,0.2-1.2c0,0,0.1-0.1,1.4-0.6
					c1.2,0.1,0.8,0,1.5,1.5c0.4,0.2,0.6,0.5,0.8,0c0.1-0.1,0.1-1.7-0.7-2.3c-0.8-0.4-2.1-0.2-2.1-0.2s-2.2,0.6-3.2,0.9
					c-0.8-0.1-1.6-0.8-1.6-0.8l-5.9-5.4c-0.4-0.4-0.7-1.1-0.6-1.7l0.2-2.1c0.1-0.5,0.5-1,1.1-1c0,0,1.8,0,3.8,0s13.6,0.4,13.6,0.4
					c-2.8,3.2-2,3.7,1.6,1.2c0,0,2.3-1.2,2.5,2.1c-0.1,0.7-0.7,1-0.7,1s-1.9,0.8-1.1,1.1c0.9,0.3,1.5,0.1,1.5,0.1
					c1.1-0.2,2.1-1.2,2.2-2.3l0.2-1.2c0.1-0.6-0.2-1.3-0.7-1.6c0,0,0.4,0-3.2-1.8C67.7,65.1,62,65,62,65c-0.6,0-0.6-0.3-0.2-0.6
					l1.2-0.7c5.2-2.1,17.6-11.3,16.2-29.8c-0.7-2.8,0-2.3-6-8.5c-1.9-3.1-3.9-7.1-6.7-8.8c0.6-1.4,0-0.4,0.9-2.4"/>
				<path class="st0" d="M87.7,51.9C84.6,53,43,93.8,42.2,96.5s2,4.1,3.8,2.6c0.4-0.4,11-12,16.6-17c3.1-3.7,2.3-3.2,5.3-6
					c2.8-2.7,5.2-4.8,8.3-8c7.7-7.8,13-12,14.2-13.8C91,53,90.9,50.8,87.7,51.9z"/>
			</g>
		</g>
	</g>
</g>
</svg>
