<?xml version="1.0" encoding="utf-8"?>
<!-- Generator: Adobe Illustrator 19.2.1, SVG Export Plug-In . SVG Version: 6.00 Build 0)  -->
<svg version="1.1" id="Ebene_1" xmlns="http://www.w3.org/2000/svg" xmlns:xlink="http://www.w3.org/1999/xlink" x="0px" y="0px"
	 viewBox="0 0 28.9 36.1" style="enable-background:new 0 0 28.9 36.1;" xml:space="preserve">
<style type="text/css">
	.st0{fill:#FFFFFF;stroke:#1D1D1B;stroke-width:0.5;stroke-miterlimit:10;}
</style>
<path class="st0" d="M23.8,12.7c-0.4-2.8-2.7-4.8-5.4-4.8c-1.3,0-2.6,0.5-3.5,1.3C14,8.1,12.5,7.4,11,7.4c-2.3,0-4.3,1.7-4.8,3.8
	c-2.6,0.1-4.6,2.2-4.6,4.8c0,2.7,2.2,4.9,4.9,4.9c0.5,0,1.2-0.1,1.6-0.3c0.9,1.2,2.3,2.1,4,2.1c1,0,2-0.3,2.7-0.8
	c0.9,0.9,2.1,1.4,3.4,1.4c2,0,3.7-1.2,4.5-2.9c0.3,0.1,0.4,0.1,0.7,0.1c2.1,0,3.9-1.8,3.9-3.9C27.3,14.6,25.7,12.9,23.8,12.7z"/>
<path class="st0" d="M25.2,17.8c-0.3-2.1-2-3.7-4.1-3.7c-1,0-2,0.4-2.6,1c-0.7-0.9-1.8-1.4-2.9-1.4c-1.8,0-3.2,1.3-3.7,2.9
	c-2,0.1-3.5,1.7-3.5,3.7c0,2,1.7,3.7,3.7,3.7c0.4,0,0.9-0.1,1.2-0.2c0.7,0.9,1.8,1.6,3,1.6c0.7,0,1.5-0.2,2-0.6
	c0.7,0.7,1.6,1.1,2.6,1.1c1.5,0,2.8-0.9,3.4-2.2c0.2,0.1,0.3,0.1,0.5,0.1c1.6,0,3-1.4,3-3C27.9,19.2,26.7,18,25.2,17.8z"/>
</svg>
