<?xml version="1.0" encoding="utf-8"?>
<!-- Generator: Adobe Illustrator 19.2.1, SVG Export Plug-In . SVG Version: 6.00 Build 0)  -->
<svg version="1.1" id="Ebene_1" xmlns="http://www.w3.org/2000/svg" xmlns:xlink="http://www.w3.org/1999/xlink" x="0px" y="0px"
	 viewBox="0 0 100 125" style="enable-background:new 0 0 100 125;" xml:space="preserve">
<style type="text/css">
	.st0{fill:#FFFFFF;stroke:#000000;stroke-miterlimit:10;}
</style>
<g>
	<g>
		<polygon class="st0" points="21.5,33.5 21.5,33.5 21.5,33.4 21.5,33.4 20.1,31.2 18.7,29 17.3,31.2 15.9,33.4 15.9,33.4 
			15.9,68.7 21.5,68.7 21.5,33.5 		"/>
	</g>
	<g>
		<polygon class="st0" points="28.5,33.5 28.5,33.5 28.5,33.4 28.5,33.4 27.1,31.2 25.8,29 24.4,31.2 23,33.4 23,33.4 23,68.7 
			28.5,68.7 28.5,33.5 		"/>
	</g>
	<g>
		<polygon class="st0" points="35.6,33.5 35.6,33.5 35.6,33.4 35.6,33.4 34.2,31.2 32.8,29 31.4,31.2 30,33.4 30,33.4 30,68.7 
			35.6,68.7 35.6,33.5 		"/>
	</g>
	<g>
		<polygon class="st0" points="42.6,33.5 42.6,33.5 42.6,33.4 42.6,33.4 41.2,31.2 39.8,29 38.4,31.2 37,33.4 37,33.4 37,68.7 
			42.6,68.7 42.6,33.5 		"/>
	</g>
	<g>
		<polygon class="st0" points="49.6,33.5 49.6,33.5 49.6,33.4 49.6,33.4 48.3,31.2 46.9,29 45.5,31.2 44.1,33.4 44.1,33.4 
			44.1,68.7 49.6,68.7 49.6,33.5 		"/>
	</g>
	<g>
		<polygon class="st0" points="56.7,33.5 56.7,33.5 56.7,33.4 56.7,33.4 55.3,31.2 53.9,29 52.5,31.2 51.1,33.4 51.1,33.4 
			51.1,68.7 56.7,68.7 56.7,33.5 		"/>
	</g>
	<g>
		<polygon class="st0" points="63.7,33.5 63.7,33.5 63.7,33.4 63.7,33.4 62.3,31.2 60.9,29 59.5,31.2 58.1,33.4 58.1,33.4 
			58.1,68.7 63.7,68.7 63.7,33.5 		"/>
	</g>
	<g>
		<polygon class="st0" points="70.8,33.5 70.7,33.5 70.7,33.4 70.7,33.4 69.4,31.2 68,29 66.6,31.2 65.2,33.4 65.2,33.4 65.2,68.7 
			70.7,68.7 70.7,33.5 		"/>
	</g>
	<g>
		<polygon class="st0" points="77.8,33.5 77.8,33.5 77.8,33.4 77.8,33.4 76.4,31.2 75,29 73.6,31.2 72.2,33.4 72.2,33.4 72.2,68.7 
			77.8,68.7 77.8,33.5 		"/>
	</g>
	<g>
		<polygon class="st0" points="84.8,33.5 84.8,33.5 84.8,33.4 84.8,33.4 83.4,31.2 82,29 80.6,31.2 79.2,33.4 79.2,33.4 79.2,68.7 
			84.8,68.7 84.8,33.5 		"/>
	</g>
	<rect x="17.9" y="39.1" class="st0" width="65.3" height="2.5"/>
	<rect x="17.9" y="60.5" class="st0" width="65.3" height="2.5"/>
</g>
</svg>
